<svg width="128" height="40" viewBox="0 0 128 40" fill="none" xmlns="http://www.w3.org/2000/svg">
<g id="Logo">
<path id="Vector" d="M63.6106 17.7393H80.2638V20.2513H73.24V38.3963H70.6155V20.2513H63.6106V17.7393Z" fill="#95FF42"/>
<path id="Vector_2" d="M79.1686 30.686C79.1686 26.1063 82.4917 22.686 86.9477 22.686C91.3847 22.686 94.4435 25.7585 94.4435 30.2416C94.4435 30.686 94.4057 31.1884 94.3868 31.5749H81.6421C81.7931 34.3189 84.0022 36.3285 86.9477 36.3285C89.1379 36.3285 90.5162 35.5363 91.668 33.6426L93.8582 34.4735C92.6498 37.1788 90.2519 38.6667 86.9477 38.6667C82.3784 38.6474 79.1686 35.3817 79.1686 30.686ZM81.7742 29.2368H91.9701C91.8756 26.8986 89.6666 25.0242 86.9477 25.0242C84.2477 25.0242 82.0763 26.7633 81.7742 29.2368Z" fill="#95FF42"/>
<path id="Vector_3" d="M111.021 34.4735C109.813 37.1788 107.415 38.6667 104.224 38.6667C99.6169 38.6667 96.2938 35.3431 96.2938 30.7054C96.2938 26.0677 99.5791 22.802 104.224 22.802C107.453 22.802 109.869 24.3092 111.078 26.9952L108.888 27.8262C107.849 26.087 106.244 25.1402 104.224 25.1402C101.052 25.1402 98.8428 27.4397 98.8428 30.7054C98.8428 34.0097 101.071 36.3479 104.224 36.3479C106.301 36.3479 107.736 35.4977 108.831 33.6619L111.021 34.4735Z" fill="#95FF42"/>
<path id="Vector_4" d="M113.985 16.8503H116.402V25.4107C117.327 23.7296 119.046 22.7827 121.274 22.7827C125.371 22.7827 127.58 24.9083 127.58 29.7392V38.3769H125.163V29.9711C125.163 26.6474 123.785 25.1015 120.82 25.1015C118.366 25.1015 116.402 26.6281 116.402 29.6426V38.3769H113.985V16.8503Z" fill="#95FF42"/>
<path id="Vector_5" d="M35.4965 38.3963L31.3238 31.2852L27.2266 38.3963H22.3175L28.6238 27.6909L22.2042 17.7393H27.321L31.4371 24.3866L35.3455 17.7393H40.2546L33.9294 28.0001L40.4245 38.3963H35.4965Z" fill="#95FF42"/>
<path id="Vector_6" d="M56.3413 31.3624C56.3413 35.9035 52.9994 38.7441 48.6189 38.7441C44.7483 38.7441 41.5007 36.5605 41.1986 31.8069H45.3714C45.6546 33.8745 47.2784 34.7634 49.0343 34.7634C51.2245 34.7634 52.1686 33.2562 52.1686 31.3045C52.1686 29.2755 50.6959 28.0001 48.6567 28.0001C46.9574 28.0001 45.8245 28.831 45.3147 29.7199H41.3119L42.6902 17.7393H55.8315L55.3973 21.7586H45.9944L45.6168 25.7199C45.6168 25.7199 46.5986 24.5219 49.6007 24.5219C53.207 24.5219 56.3413 26.9953 56.3413 31.3624Z" fill="#95FF42"/>
<path id="Vector_7" d="M41.6896 15.169C39.4616 6.28008 32.4 0.0578613 17.7483 0.0578613H0.0566406L2.45455 16.6762C4.26714 31.6714 9.87484 36.5023 19.7874 38.2801C19.8252 38.2801 20.1462 38.3381 20.1462 37.9516C20.1462 37.8163 20.0707 37.7004 19.9574 37.6424C13.2546 34.7632 12.4804 25.2753 11.0643 15.768L9.95036 8.19313H20.0518C29.3602 8.19313 36.5539 8.03854 41.1042 15.4009C41.1798 15.4975 41.2742 15.5748 41.4063 15.5748C41.5763 15.5748 41.7084 15.4202 41.7084 15.2463C41.7084 15.2269 41.6896 15.2076 41.6896 15.169Z" fill="#95FF42"/>
</g>
</svg>
